<?xml version="1.0" encoding="UTF-8" standalone="no"?>
<!-- Created with Inkscape (http://www.inkscape.org/) -->

<svg
   width="210mm"
   height="150mm"
   viewBox="0 0 210 150"
   version="1.1"
   id="svg1"
   xml:space="preserve"
   inkscape:version="1.4.2 (f4327f4, 2025-05-13)"
   sodipodi:docname="HYWIN.svg"
   inkscape:export-filename="HYWIN.png"
   inkscape:export-xdpi="96"
   inkscape:export-ydpi="96"
   xmlns:inkscape="http://www.inkscape.org/namespaces/inkscape"
   xmlns:sodipodi="http://sodipodi.sourceforge.net/DTD/sodipodi-0.dtd"
   xmlns:xlink="http://www.w3.org/1999/xlink"
   xmlns="http://www.w3.org/2000/svg"
   xmlns:svg="http://www.w3.org/2000/svg"><sodipodi:namedview
     id="namedview1"
     pagecolor="#ffffff"
     bordercolor="#000000"
     borderopacity="0.25"
     inkscape:showpageshadow="2"
     inkscape:pageopacity="0.0"
     inkscape:pagecheckerboard="0"
     inkscape:deskcolor="#d1d1d1"
     inkscape:document-units="mm"
     inkscape:zoom="0.50835205"
     inkscape:cx="134.74914"
     inkscape:cy="555.71724"
     inkscape:window-width="1920"
     inkscape:window-height="1009"
     inkscape:window-x="-8"
     inkscape:window-y="-8"
     inkscape:window-maximized="1"
     inkscape:current-layer="svg1" /><defs
     id="defs1"><linearGradient
       id="linearGradient2"
       inkscape:collect="always"><stop
         style="stop-color:#1a3e77;stop-opacity:1;"
         offset="0.32535094"
         id="stop1" /><stop
         style="stop-color:#5cb9c1;stop-opacity:1;"
         offset="1"
         id="stop2" /></linearGradient><linearGradient
       id="linearGradient208"
       inkscape:collect="always"><stop
         style="stop-color:#2d6098;stop-opacity:1;"
         offset="0"
         id="stop207" /><stop
         style="stop-color:#488fc2;stop-opacity:1;"
         offset="0.90476191"
         id="stop208" /></linearGradient><linearGradient
       id="linearGradient204"
       inkscape:collect="always"><stop
         style="stop-color:#40b4b3;stop-opacity:1;"
         offset="0.42064425"
         id="stop204" /><stop
         style="stop-color:#1a3e77;stop-opacity:1;"
         offset="1"
         id="stop205" /></linearGradient><linearGradient
       id="linearGradient148"
       inkscape:collect="always"><stop
         style="stop-color:#c5985f;stop-opacity:1;"
         offset="0"
         id="stop148" /><stop
         style="stop-color:#e1994d;stop-opacity:1;"
         offset="1"
         id="stop149" /></linearGradient><linearGradient
       id="linearGradient145"
       inkscape:collect="always"><stop
         style="stop-color:#dc853e;stop-opacity:1;"
         offset="0"
         id="stop144" /><stop
         style="stop-color:#ca592d;stop-opacity:1;"
         offset="0.49369368"
         id="stop145" /></linearGradient><inkscape:path-effect
       effect="fillet_chamfer"
       id="path-effect144"
       is_visible="true"
       lpeversion="1"
       nodesatellites_param="F,0,0,1,0,0,0,1 @ F,0,0,1,0,0,0,1 @ F,0,0,1,0,0,0,1 @ F,0,0,1,0,0,0,1 @ F,0,0,1,0,0,0,1 @ F,0,0,1,0,0,0,1 @ F,0,0,1,0,0,0,1 @ F,0,0,1,0,0,0,1 @ F,0,0,1,0,0,0,1 @ F,0,0,1,0,0,0,1"
       radius="0"
       unit="px"
       method="auto"
       mode="F"
       chamfer_steps="1"
       flexible="false"
       use_knot_distance="true"
       apply_no_radius="true"
       apply_with_radius="true"
       only_selected="false"
       hide_knots="false" /><inkscape:path-effect
       effect="fillet_chamfer"
       id="path-effect142"
       is_visible="true"
       lpeversion="1"
       nodesatellites_param="F,0,0,1,0,0,0,1 @ F,0,0,1,0,0,0,1 @ F,0,0,1,0,0,0,1 @ F,0,0,1,0,0,0,1 @ F,0,0,1,0,0,0,1 @ F,0,0,1,0,0,0,1 @ F,0,0,1,0,0,0,1 @ F,0,0,1,0,0,0,1"
       radius="0"
       unit="px"
       method="auto"
       mode="F"
       chamfer_steps="1"
       flexible="false"
       use_knot_distance="true"
       apply_no_radius="true"
       apply_with_radius="true"
       only_selected="false"
       hide_knots="false" /><inkscape:path-effect
       effect="fillet_chamfer"
       id="path-effect140"
       is_visible="true"
       lpeversion="1"
       nodesatellites_param="F,0,0,1,0,0,0,1 @ F,0,0,1,0,0,0,1 @ F,0,0,1,0,0,0,1 @ F,0,0,1,0,0,0,1 @ F,0,0,1,0,0,0,1 @ F,0,0,1,0,0,0,1 @ F,0,0,1,0,0,0,1 @ F,0,0,1,0,0,0,1 @ F,0,0,1,0,0,0,1 @ F,0,0,1,0,0,0,1 @ F,0,0,1,0,0,0,1 @ F,0,0,1,0,0,0,1 @ F,0,0,1,0,0,0,1 @ F,0,0,1,0,0,0,1 @ F,0,0,1,0,0,0,1 @ F,0,0,1,0,0,0,1 @ F,0,0,1,0,0,0,1 @ F,0,0,1,0,0,0,1 @ F,0,0,1,0,0,0,1 @ F,0,0,1,0,0,0,1 @ F,0,0,1,0,0,0,1 @ F,0,0,1,0,0,0,1 @ F,0,0,1,0,0,0,1 @ F,0,0,1,0,0,0,1 @ F,0,0,1,0,0,0,1 @ F,0,0,1,0,0,0,1 @ F,0,0,1,0,0,0,1 @ F,0,0,1,0,0,0,1 @ F,0,0,1,0,0,0,1 @ F,0,0,1,0,0,0,1 @ F,0,0,1,0,0,0,1 @ F,0,0,1,0,0,0,1 @ F,0,0,1,0,0,0,1 @ F,0,0,1,0,0,0,1 @ F,0,0,1,0,0,0,1 @ F,0,0,1,0,0,0,1 @ F,0,0,1,0,0,0,1 @ F,0,0,1,0,0,0,1 @ F,0,0,1,0,0,0,1 @ F,0,0,1,0,0,0,1 @ F,0,0,1,0,0,0,1 @ F,0,0,1,0,0,0,1 @ F,0,0,1,0,0,0,1 @ F,0,0,1,0,0,0,1 @ F,0,0,1,0,0,0,1 @ F,0,0,1,0,0,0,1 @ F,0,0,1,0,0,0,1 @ F,0,0,1,0,0,0,1 @ F,0,0,1,0,0,0,1 @ F,0,0,1,0,0,0,1 @ F,0,0,1,0,0,0,1 @ F,0,0,1,0,0,0,1 @ F,0,0,1,0,0,0,1 @ F,0,0,1,0,0,0,1 @ F,0,0,1,0,0,0,1 @ F,0,0,1,0,0,0,1 @ F,0,0,1,0,0,0,1 @ F,0,0,1,0,0,0,1 @ F,0,0,1,0,0,0,1 @ F,0,0,1,0,0,0,1 @ F,0,0,1,0,0,0,1 @ F,0,0,1,0,0,0,1 @ F,0,0,1,0,0,0,1 @ F,0,0,1,0,0,0,1 @ F,0,0,1,0,0,0,1 @ F,0,0,1,0,0,0,1 @ F,0,0,1,0,0,0,1 @ F,0,0,1,0,0,0,1 @ F,0,0,1,0,0,0,1 @ F,0,0,1,0,0,0,1 @ F,0,0,1,0,0,0,1 @ F,0,0,1,0,0,0,1 @ F,0,0,1,0,0,0,1 @ F,0,0,1,0,0,0,1 @ F,0,0,1,0,0,0,1 @ F,0,0,1,0,0,0,1 @ F,0,0,1,0,0,0,1 @ F,0,0,1,0,0,0,1 @ F,0,0,1,0,0,0,1 @ F,0,0,1,0,0,0,1 @ F,0,0,1,0,0,0,1 @ F,0,0,1,0,0,0,1 @ F,0,0,1,0,0,0,1 @ F,0,0,1,0,0,0,1 @ F,0,0,1,0,0,0,1 @ F,0,0,1,0,0,0,1 @ F,0,0,1,0,0,0,1 @ F,0,0,1,0,0,0,1 @ F,0,0,1,0,0,0,1 @ F,0,0,1,0,0,0,1 @ F,0,0,1,0,0,0,1 @ F,0,0,1,0,0,0,1 @ F,0,0,1,0,0,0,1 @ F,0,0,1,0,0,0,1 @ F,0,0,1,0,0,0,1 @ F,0,0,1,0,0,0,1 @ F,0,0,1,0,0,0,1 @ F,0,0,1,0,0,0,1 @ F,0,0,1,0,0,0,1 @ F,0,0,1,0,0,0,1"
       radius="0"
       unit="px"
       method="auto"
       mode="F"
       chamfer_steps="1"
       flexible="false"
       use_knot_distance="true"
       apply_no_radius="true"
       apply_with_radius="true"
       only_selected="false"
       hide_knots="false" /><inkscape:path-effect
       effect="fillet_chamfer"
       id="path-effect138"
       is_visible="true"
       lpeversion="1"
       nodesatellites_param="F,0,0,1,0,0,0,1 @ F,0,0,1,0,0,0,1 @ F,0,0,1,0,0,0,1 @ F,0,0,1,0,0,0,1 @ F,0,0,1,0,0,0,1"
       radius="0"
       unit="px"
       method="auto"
       mode="F"
       chamfer_steps="1"
       flexible="false"
       use_knot_distance="true"
       apply_no_radius="true"
       apply_with_radius="true"
       only_selected="false"
       hide_knots="false" /><inkscape:path-effect
       effect="fillet_chamfer"
       id="path-effect136"
       is_visible="true"
       lpeversion="1"
       nodesatellites_param="F,0,0,1,0,0,0,1 @ F,0,0,1,0,0,0,1 @ F,0,0,1,0,0,0,1 @ F,0,0,1,0,0,0,1 @ F,0,0,1,0,0,0,1 @ F,0,0,1,0,0,0,1 @ F,0,0,1,0,0,0,1 @ F,0,0,1,0,0,0,1 @ F,0,0,1,0,0,0,1 @ F,0,0,1,0,0,0,1 @ F,0,0,1,0,0,0,1 @ F,0,0,1,0,0,0,1 @ F,0,0,1,0,0,0,1 @ F,0,0,1,0,0,0,1 @ F,0,0,1,0,0,0,1 @ F,0,0,1,0,0,0,1 @ F,0,0,1,0,0,0,1"
       radius="0"
       unit="px"
       method="auto"
       mode="F"
       chamfer_steps="1"
       flexible="false"
       use_knot_distance="true"
       apply_no_radius="true"
       apply_with_radius="true"
       only_selected="false"
       hide_knots="false" /><linearGradient
       id="linearGradient131"
       inkscape:collect="always"><stop
         style="stop-color:#294466;stop-opacity:1;"
         offset="0"
         id="stop132" /><stop
         style="stop-color:#408bc4;stop-opacity:1"
         offset="1"
         id="stop133" /></linearGradient><inkscape:path-effect
       effect="fillet_chamfer"
       id="path-effect22"
       is_visible="true"
       lpeversion="1"
       nodesatellites_param="F,0,0,1,0,0,0,1 @ F,0,0,1,0,0,0,1 @ F,0,0,1,0,0,0,1 @ F,0,0,1,0,0,0,1 @ F,0,0,1,0,0,0,1 @ F,0,0,1,0,0,0,1 @ F,0,0,1,0,0,0,1 @ F,0,0,1,0,0,0,1 @ F,0,0,1,0,0,0,1 @ F,0,0,1,0,0,0,1 @ F,0,0,1,0,0,0,1 @ F,0,0,1,0,0,0,1 @ F,0,0,1,0,0,0,1 @ F,0,0,1,0,0,0,1 @ F,0,0,1,0,0,0,1 @ F,0,0,1,0,0,0,1 @ F,0,0,1,0,0,0,1 @ F,0,0,1,0,0,0,1 @ F,0,0,1,0,0,0,1 @ F,0,0,1,0,0,0,1 @ F,0,0,1,0,0,0,1 @ F,0,0,1,0,0,0,1 @ F,0,0,1,0,0,0,1 @ F,0,0,1,0,0,0,1 @ F,0,0,1,0,0,0,1 @ F,0,0,1,0,0,0,1 @ F,0,0,1,0,0,0,1 @ F,0,0,1,0,0,0,1 @ F,0,0,1,0,0,0,1 @ F,0,0,1,0,0,0,1 @ F,0,0,1,0,0,0,1 @ F,0,0,1,0,0,0,1 @ F,0,0,1,0,0,0,1 @ F,0,0,1,0,0,0,1 @ F,0,0,1,0,0,0,1 @ F,0,0,1,0,0,0,1 @ F,0,0,1,0,0,0,1 @ F,0,0,1,0,0,0,1 @ F,0,0,1,0,0,0,1 @ F,0,0,1,0,0,0,1 @ F,0,0,1,0,0,0,1 @ F,0,0,1,0,0,0,1 @ F,0,0,1,0,0,0,1 @ F,0,0,1,0,0,0,1 @ F,0,0,1,0,0,0,1 @ F,0,0,1,0,0,0,1 @ F,0,0,1,0,0,0,1 @ F,0,0,1,0,0,0,1 @ F,0,0,1,0,0,0,1 @ F,0,0,1,0,0,0,1 @ F,0,0,1,0,0,0,1 @ F,0,0,1,0,0,0,1 @ F,0,0,1,0,0,0,1 @ F,0,0,1,0,0,0,1 @ F,0,0,1,0,0,0,1 @ F,0,0,1,0,0,0,1 @ F,0,0,1,0,0,0,1 @ F,0,0,1,0,0,0,1 @ F,0,0,1,0,0,0,1 @ F,0,0,1,0,0,0,1 @ F,0,0,1,0,0,0,1"
       radius="0"
       unit="px"
       method="auto"
       mode="F"
       chamfer_steps="1"
       flexible="false"
       use_knot_distance="true"
       apply_no_radius="true"
       apply_with_radius="true"
       only_selected="false"
       hide_knots="false" /><linearGradient
       inkscape:collect="always"
       xlink:href="#linearGradient131"
       id="linearGradient133"
       x1="77.12336"
       y1="215.93617"
       x2="62.029644"
       y2="177.42119"
       gradientUnits="userSpaceOnUse" /><linearGradient
       inkscape:collect="always"
       xlink:href="#linearGradient145"
       id="linearGradient144"
       gradientUnits="userSpaceOnUse"
       x1="103.90432"
       y1="206.02678"
       x2="110.61591"
       y2="211.54089" /><linearGradient
       inkscape:collect="always"
       xlink:href="#linearGradient2"
       id="linearGradient146"
       gradientUnits="userSpaceOnUse"
       x1="79.939148"
       y1="201.53134"
       x2="66.253647"
       y2="182.24112" /><linearGradient
       inkscape:collect="always"
       xlink:href="#linearGradient208"
       id="linearGradient147"
       gradientUnits="userSpaceOnUse"
       x1="70.866852"
       y1="179.86925"
       x2="65.341911"
       y2="174.10892" /><linearGradient
       inkscape:collect="always"
       xlink:href="#linearGradient148"
       id="linearGradient149"
       x1="117.35985"
       y1="164.68466"
       x2="115.22406"
       y2="167.25322"
       gradientUnits="userSpaceOnUse" /><radialGradient
       inkscape:collect="always"
       xlink:href="#linearGradient204"
       id="radialGradient205"
       cx="139.28001"
       cy="160.35052"
       fx="139.28001"
       fy="160.35052"
       r="59.669895"
       gradientTransform="matrix(0.09631395,0.26879909,-0.86524567,0.31002801,214.06715,98.061172)"
       gradientUnits="userSpaceOnUse" /></defs><g
     inkscape:label="圖層 1"
     id="layer1"
     transform="matrix(1.6609834,0.03597994,-0.03589133,1.6650843,-45.593336,-317.81835)"
     style="fill:url(#linearGradient133);fill-opacity:1;stroke:#ffffff;stroke-opacity:1;stroke-width:0.60117079;stroke-dasharray:none"><path
       style="fill:url(#linearGradient144);fill-opacity:1;stroke:#ffffff;stroke-opacity:1;stroke-width:0.60117079;stroke-dasharray:none"
       inkscape:path-effect="#path-effect144"
       inkscape:original-d="m 108.10245,197.65202 c 0.0119,-0.0398 0.0734,-0.48981 -0.31178,-0.27973 -0.76695,0.41826 -2.09872,2.02337 -3.22155,3.05997 -2.76731,2.55479 -7.29118,5.65989 -12.562333,7.55508 l -7.776786,2.79673 -3.034957,10.38852 c -1.669112,5.71415 -4.320403,11.59763 -4.358758,12.57093 -0.06355,1.61375 2.191835,1.52432 9.542153,1.29958 7.084386,-0.2166 9.36693,0.67581 10.915458,-2.46118 0.843005,-1.70775 9.299863,-29.90511 10.808553,-34.92986 z"
       transform="translate(4.9684014,40.8513)"
       d="m 108.10245,197.65202 c 0.0119,-0.0398 0.0734,-0.48981 -0.31178,-0.27973 -0.76695,0.41826 -2.09872,2.02337 -3.22155,3.05997 -2.76731,2.55479 -7.29118,5.65989 -12.562333,7.55508 l -7.776786,2.79673 -3.034957,10.38852 c -1.669112,5.71415 -4.320403,11.59763 -4.358758,12.57093 -0.06355,1.61375 2.191835,1.52432 9.542153,1.29958 7.084386,-0.2166 9.36693,0.67581 10.915458,-2.46118 0.843005,-1.70775 9.299863,-29.90511 10.808553,-34.92986 z"
       id="path142"
       sodipodi:nodetypes="ssscccsssss" /><path
       style="fill:#e09b4e;fill-opacity:1;stroke:#ffffff;stroke-opacity:1;stroke-width:0.60117079;stroke-dasharray:none"
       inkscape:path-effect="#path-effect142"
       inkscape:original-d="m 94.634534,176.67397 c -0.5828,0.0335 -1.986442,3.4515 -3.134693,7.64139 -1.157291,4.22288 -2.37131,8.37438 -2.698026,9.2258 -0.499171,1.30079 -0.09719,1.44901 2.517676,0.92604 5.76029,-1.15206 11.488219,-4.25971 12.682429,-6.88072 1.09071,-2.39385 0.89091,-2.76971 -3.57653,-6.70605 -2.602861,-2.29342 -5.203129,-4.18623 -5.77742,-4.20646 -0.0045,-1.6e-4 -0.0088,-2.6e-4 -0.01344,0 z"
       transform="translate(4.9684014,40.8513)"
       d="m 94.634534,176.67397 c -0.5828,0.0335 -1.986442,3.4515 -3.134693,7.64139 -1.157291,4.22288 -2.37131,8.37438 -2.698026,9.2258 -0.499171,1.30079 -0.09719,1.44901 2.517676,0.92604 5.76029,-1.15206 11.488219,-4.25971 12.682429,-6.88072 1.09071,-2.39385 0.89091,-2.76971 -3.57653,-6.70605 -2.602861,-2.29342 -5.203129,-4.18623 -5.77742,-4.20646 -0.0045,-1.6e-4 -0.0088,-2.6e-4 -0.01344,0 z"
       id="path140" /><path
       style="fill:url(#radialGradient205);stroke:#ffffff;stroke-opacity:1;stroke-width:0.60117079;stroke-dasharray:none"
       inkscape:path-effect="#path-effect140"
       inkscape:original-d="m 128.40043,173.79611 v 0.002 c -1.03872,-0.0215 -2.04413,9.6e-4 -2.9993,0.0682 -2.88619,0.15209 -5.19005,0.74579 -6.78356,1.78232 -1.5761,1.0252 -5.24699,4.78313 -8.15765,8.35143 -1.60326,1.96552 -3.19446,3.71282 -4.78368,5.24877 -2.38381,2.30393 -4.76307,4.13267 -7.173209,5.51078 -2.410143,1.3781 -4.850628,2.30592 -7.356656,2.80706 h -0.001 c -2.752916,0.55048 -11.237417,1.42345 -18.85518,1.93994 0,0 -3.45e-4,-1e-5 -5.17e-4,0 -6.293485,0.40902 -12.800964,0.38698 -18.761128,2.44894 -5.069134,1.7537 -10.297841,4.76985 -13.832231,8.22276 -0.07251,0.0679 -0.157126,0.12699 -0.228927,0.19533 -0.146831,0.13639 -0.29155,0.27418 -0.435115,0.41238 -0.06879,0.0708 -0.137258,0.14173 -0.205156,0.21291 -0.02892,0.0289 -0.05337,0.0599 -0.08216,0.0889 -2.666224,2.63295 -4.469834,5.43579 -6.03219,8.55607 -0.500605,0.99979 -0.770523,2.10412 -1.037146,3.18998 -0.173749,0.70762 -0.343542,1.42707 -0.363802,2.15543 -0.05278,1.89726 -0.149118,3.9297 0.63407,5.65857 0.129258,0.28533 0.497928,0.78594 0.633036,0.69453 0.252267,-0.0884 0.345796,-1.03144 0.373621,-3.04736 0.01935,-1.40197 0.258298,-3.07499 0.771529,-4.51187 0.47297,-1.32416 1.220281,-2.55802 2.08411,-3.66748 1.360613,-1.74751 3.432687,-3.6308 4.795573,-4.59868 0.227149,-0.16132 0.435892,-0.29676 0.622184,-0.40049 0.186293,-0.10377 0.34988,-0.17622 0.484209,-0.21188 0.01492,0.0301 0.02577,0.0716 0.03359,0.12351 0.05471,0.36386 -0.06227,1.25439 -0.31626,2.50217 -0.453172,1.81827 -1.194092,4.41586 -2.097029,7.29206 l -3.132109,9.97614 2.523877,0.38757 c 1.728913,0.2658 3.370438,0.41573 4.912362,0.45165 1.541924,0.0359 2.983688,-0.0421 4.312915,-0.23099 2.25366,-0.32017 4.15934,-0.97848 5.701977,-1.92495 0.0013,-7.1e-4 0.0023,-0.001 0.0036,-0.003 0.287244,-0.15675 0.557981,-0.32942 0.813387,-0.51883 0.0016,-0.001 0.0031,-0.002 0.0047,-0.004 0.09193,-0.0693 0.182298,-0.13988 0.270784,-0.21187 l 5.17e-4,-5.2e-4 h 5.17e-4 v -5.2e-4 l 5.17e-4,-5.1e-4 c 8.65e-4,-7.1e-4 0.0017,-0.001 0.0026,-0.003 0.0034,-0.003 0.0064,-0.006 0.0098,-0.009 0.101457,-0.0842 0.195789,-0.17784 0.292488,-0.2682 0.06683,-0.0625 0.137375,-0.12 0.202055,-0.18552 l 5.17e-4,-5.2e-4 c 2.29e-4,-1.8e-4 0.0013,-8.4e-4 0.0015,-0.001 l 5.17e-4,-5.2e-4 v -5.2e-4 c 0.03628,-0.0368 0.06928,-0.0791 0.104903,-0.11678 0.123013,-0.12137 0.26226,-0.23107 0.376722,-0.35864 0.237064,-0.2642 0.513994,-0.70036 0.814937,-1.26762 0.0011,-0.003 0.0024,-0.004 0.0036,-0.005 l 5.17e-4,-0.001 c 0.286136,-0.54005 0.59374,-1.19917 0.908988,-1.942 0.836972,-1.97216 1.728041,-4.53759 2.41329,-7.05384 0.80535,-2.95728 1.358183,-5.12862 1.897558,-6.73344 0.134844,-0.4012 0.268333,-0.76687 0.405144,-1.1007 0.13681,-0.33384 0.277017,-0.63619 0.42323,-0.90951 0.292423,-0.54664 0.610823,-0.97819 0.985469,-1.32395 0.09365,-0.0864 0.190848,-0.16788 0.291972,-0.24391 0.202248,-0.15207 0.420684,-0.28441 0.658358,-0.39998 0.118835,-0.0578 0.242465,-0.11133 0.371553,-0.16123 0.258179,-0.1 0.538085,-0.18519 0.842843,-0.2589 1.52379,-0.36848 3.676064,-0.4519 6.922058,-0.68006 4.061999,-0.28552 7.856144,-0.82836 11.366748,-1.6216 1.755302,-0.39663 3.439547,-0.85611 5.051371,-1.37718 1.611825,-0.52108 3.151146,-1.10383 4.615739,-1.7477 2.929189,-1.28775 5.560323,-2.81929 7.878073,-4.58835 1.15888,-0.88453 2.2392,-1.82845 3.23959,-2.83083 1.00048,-1.00248 1.92079,-2.06353 2.75901,-3.18224 4.34693,-5.80156 10.37529,-9.71833 17.02428,-11.22102 1.10818,-0.25044 2.23417,-0.4339 3.37189,-0.54777 1.13773,-0.11388 2.28729,-0.15785 3.44475,-0.13022 h 5.2e-4 l 4.38526,0.10438 -3.82044,0.78342 c -2.10146,0.43077 -5.65291,1.44103 -7.89151,2.24482 -1.12586,0.40427 -2.47906,1.03648 -3.87573,1.7787 -3.49168,1.85559 -7.25466,4.39501 -8.41189,5.75418 -0.14466,0.1699 -0.24831,0.32123 -0.30592,0.45061 -0.0118,0.0259 -0.0207,0.0509 -0.0284,0.0749 -0.008,0.024 -0.0136,0.0471 -0.0176,0.0693 -0.001,0.0105 -0.004,0.0224 -0.005,0.0331 -9.9e-4,0.0105 -0.002,0.0208 -0.002,0.031 0,0.0217 -0.007,0.0465 0.004,0.0656 0.55366,0.99406 1.76169,1.47792 2.78743,1.97042 0.91385,0.43878 1.9348,0.61337 2.92282,0.84026 1.13408,0.26043 2.28067,0.49144 3.43958,0.59583 2.48547,0.22389 5.03007,0.50184 7.48636,0.061 2.94843,-0.52917 5.52584,-1.12218 8.40001,-3.19361 0.0163,-0.0118 0.0464,-0.0442 0.063,-0.0563 2.08866,-1.46851 4.09298,-3.45814 6.22185,-6.17327 3.89859,-4.38291 7.83931,-9.47548 7.83931,-10.54613 0,-0.39884 -1.61259,-0.72982 -3.58273,-0.73639 -1.97012,-0.007 -5.9456,-0.64552 -8.83512,-1.4211 -3.26622,-0.87669 -6.6832,-1.34202 -9.7994,-1.40663 z"
       transform="translate(4.9684014,40.8513)"
       d="m 128.40043,173.79611 v 0.002 c -1.03872,-0.0215 -2.04413,9.6e-4 -2.9993,0.0682 -2.88619,0.15209 -5.19005,0.74579 -6.78356,1.78232 -1.5761,1.0252 -5.24699,4.78313 -8.15765,8.35143 -1.60326,1.96552 -3.19446,3.71282 -4.78368,5.24877 -2.38381,2.30393 -4.76307,4.13267 -7.173209,5.51078 -2.410143,1.3781 -4.850628,2.30592 -7.356656,2.80706 h -0.001 c -2.752916,0.55048 -11.237417,1.42345 -18.85518,1.93994 0,0 -3.45e-4,-1e-5 -5.17e-4,0 -6.293485,0.40902 -12.800964,0.38698 -18.761128,2.44894 -5.069134,1.7537 -10.297841,4.76985 -13.832231,8.22276 -0.07251,0.0679 -0.157126,0.12699 -0.228927,0.19533 -0.146831,0.13639 -0.29155,0.27418 -0.435115,0.41238 -0.06879,0.0708 -0.137258,0.14173 -0.205156,0.21291 -0.02892,0.0289 -0.05337,0.0599 -0.08216,0.0889 -2.666224,2.63295 -4.469834,5.43579 -6.03219,8.55607 -0.500605,0.99979 -0.770523,2.10412 -1.037146,3.18998 -0.173749,0.70762 -0.343542,1.42707 -0.363802,2.15543 -0.05278,1.89726 -0.149118,3.9297 0.63407,5.65857 0.129258,0.28533 0.497928,0.78594 0.633036,0.69453 0.252267,-0.0884 0.345796,-1.03144 0.373621,-3.04736 0.01935,-1.40197 0.258298,-3.07499 0.771529,-4.51187 0.47297,-1.32416 1.220281,-2.55802 2.08411,-3.66748 1.360613,-1.74751 3.432687,-3.6308 4.795573,-4.59868 0.227149,-0.16132 0.435892,-0.29676 0.622184,-0.40049 0.186293,-0.10377 0.34988,-0.17622 0.484209,-0.21188 0.01492,0.0301 0.02577,0.0716 0.03359,0.12351 0.05471,0.36386 -0.06227,1.25439 -0.31626,2.50217 -0.453172,1.81827 -1.194092,4.41586 -2.097029,7.29206 l -3.132109,9.97614 2.523877,0.38757 c 1.728913,0.2658 3.370438,0.41573 4.912362,0.45165 1.541924,0.0359 2.983688,-0.0421 4.312915,-0.23099 2.25366,-0.32017 4.15934,-0.97848 5.701977,-1.92495 0.0013,-7.1e-4 0.0023,-0.001 0.0036,-0.003 0.287244,-0.15675 0.557981,-0.32942 0.813387,-0.51883 0.0016,-0.001 0.0031,-0.002 0.0047,-0.004 0.09193,-0.0693 0.182298,-0.13988 0.270784,-0.21187 l 5.17e-4,-5.2e-4 h 5.17e-4 v -5.2e-4 l 5.17e-4,-5.1e-4 c 8.65e-4,-7.1e-4 0.0017,-0.001 0.0026,-0.003 0.0034,-0.003 0.0064,-0.006 0.0098,-0.009 0.101457,-0.0842 0.195789,-0.17784 0.292488,-0.2682 0.06683,-0.0625 0.137375,-0.12 0.202055,-0.18552 l 5.17e-4,-5.2e-4 c 2.29e-4,-1.8e-4 0.0013,-8.4e-4 0.0015,-0.001 l 5.17e-4,-5.2e-4 v -5.2e-4 c 0.03628,-0.0368 0.06928,-0.0791 0.104903,-0.11678 0.123013,-0.12137 0.26226,-0.23107 0.376722,-0.35864 0.237064,-0.2642 0.513994,-0.70036 0.814937,-1.26762 0.0011,-0.003 0.0024,-0.004 0.0036,-0.005 l 5.17e-4,-0.001 c 0.286136,-0.54005 0.59374,-1.19917 0.908988,-1.942 0.836972,-1.97216 1.728041,-4.53759 2.41329,-7.05384 0.80535,-2.95728 1.358183,-5.12862 1.897558,-6.73344 0.134844,-0.4012 0.268333,-0.76687 0.405144,-1.1007 0.13681,-0.33384 0.277017,-0.63619 0.42323,-0.90951 0.292423,-0.54664 0.610823,-0.97819 0.985469,-1.32395 0.09365,-0.0864 0.190848,-0.16788 0.291972,-0.24391 0.202248,-0.15207 0.420684,-0.28441 0.658358,-0.39998 0.118835,-0.0578 0.242465,-0.11133 0.371553,-0.16123 0.258179,-0.1 0.538085,-0.18519 0.842843,-0.2589 1.52379,-0.36848 3.676064,-0.4519 6.922058,-0.68006 4.061999,-0.28552 7.856144,-0.82836 11.366748,-1.6216 1.755302,-0.39663 3.439547,-0.85611 5.051371,-1.37718 1.611825,-0.52108 3.151146,-1.10383 4.615739,-1.7477 2.929189,-1.28775 5.560323,-2.81929 7.878073,-4.58835 1.15888,-0.88453 2.2392,-1.82845 3.23959,-2.83083 1.00048,-1.00248 1.92079,-2.06353 2.75901,-3.18224 4.34693,-5.80156 10.37529,-9.71833 17.02428,-11.22102 1.10818,-0.25044 2.23417,-0.4339 3.37189,-0.54777 1.13773,-0.11388 2.28729,-0.15785 3.44475,-0.13022 h 5.2e-4 l 4.38526,0.10438 -3.82044,0.78342 c -2.10146,0.43077 -5.65291,1.44103 -7.89151,2.24482 -1.12586,0.40427 -2.47906,1.03648 -3.87573,1.7787 -3.49168,1.85559 -7.25466,4.39501 -8.41189,5.75418 -0.14466,0.1699 -0.24831,0.32123 -0.30592,0.45061 -0.0118,0.0259 -0.0207,0.0509 -0.0284,0.0749 -0.008,0.024 -0.0136,0.0471 -0.0176,0.0693 -0.001,0.0105 -0.004,0.0224 -0.005,0.0331 -9.9e-4,0.0105 -0.002,0.0208 -0.002,0.031 0,0.0217 -0.007,0.0465 0.004,0.0656 0.55366,0.99406 1.76169,1.47792 2.78743,1.97042 0.91385,0.43878 1.9348,0.61337 2.92282,0.84026 1.13408,0.26043 2.28067,0.49144 3.43958,0.59583 2.48547,0.22389 5.03007,0.50184 7.48636,0.061 2.94843,-0.52917 5.52584,-1.12218 8.40001,-3.19361 0.0163,-0.0118 0.0464,-0.0442 0.063,-0.0563 2.08866,-1.46851 4.09298,-3.45814 6.22185,-6.17327 3.89859,-4.38291 7.83931,-9.47548 7.83931,-10.54613 0,-0.39884 -1.61259,-0.72982 -3.58273,-0.73639 -1.97012,-0.007 -5.9456,-0.64552 -8.83512,-1.4211 -3.26622,-0.87669 -6.6832,-1.34202 -9.7994,-1.40663 z"
       id="path138"
       sodipodi:nodetypes="cccssssccccscccccsssscsssssccccccsccccccccccccsscccccsccsssssssssccsssssssssscccssscccsscsssssccscscc" /><path
       style="fill:url(#linearGradient149);fill-opacity:1;stroke:#ffffff;stroke-opacity:1;stroke-width:0.60117079;stroke-dasharray:none"
       inkscape:path-effect="#path-effect138"
       inkscape:original-d="m 114.59722,161.91912 c -2.61103,-0.25158 -3.90679,-0.32624 -3.48613,0.77 0.29995,0.78164 1.58575,4.62735 1.76375,7.23229 0.17499,2.56082 -0.16903,6.5623 0.40232,6.52131 0.9337,-0.067 4.55431,-11.62693 5.18822,-13.39126 0.29516,-0.82154 -1.78431,-0.93156 -3.86816,-1.13234 z"
       transform="translate(4.9684014,40.8513)"
       d="m 114.59722,161.91912 c -2.61103,-0.25158 -3.90679,-0.32624 -3.48613,0.77 0.29995,0.78164 1.58575,4.62735 1.76375,7.23229 0.17499,2.56082 -0.16903,6.5623 0.40232,6.52131 0.9337,-0.067 4.55431,-11.62693 5.18822,-13.39126 0.29516,-0.82154 -1.78431,-0.93156 -3.86816,-1.13234 z"
       id="path136"
       sodipodi:nodetypes="ssssss" /><path
       style="fill:url(#linearGradient147);fill-opacity:1;stroke:#ffffff;stroke-opacity:1;stroke-width:0.60117079;stroke-dasharray:none"
       inkscape:path-effect="#path-effect136"
       inkscape:original-d="m 69.995728,162.30947 c -3.765375,0 -6.989016,0.62379 -9.528101,1.82263 -1.015635,0.47953 -1.921412,1.05067 -2.708879,1.71101 -0.393732,0.33017 -0.757622,0.68311 -1.090889,1.0573 -0.192814,0.21649 -0.457252,0.7076 -0.777214,1.42317 -1.580972,5.22851 -6.703299,21.21183 -9.313643,30.41106 -0.352054,1.24069 -0.503274,2.10155 -0.543324,2.66992 -0.01602,0.22734 -0.01243,0.41927 0.02138,0.55219 0.035,0.13833 0.100812,0.20279 0.129332,0.22873 0.08341,0.0841 0.274387,0.10446 0.345076,0.10136 0.03394,-0.003 0.07004,-0.007 0.108003,-0.0145 0.22785,-0.0428 0.52932,-0.16641 0.914673,-0.35502 3.479044,-1.67746 7.313777,-2.56531 11.014832,-3.6375 2.75464,-0.79729 5.549377,-1.33563 8.315222,-2.20691 l 3.671611,-13.77746 c 2.019128,-7.57741 3.936547,-15.1737 4.261239,-16.88114 l 0.590144,-3.1042 z"
       transform="translate(4.9684014,40.8513)"
       d="m 69.995728,162.30947 c -3.765375,0 -6.989016,0.62379 -9.528101,1.82263 -1.015635,0.47953 -1.921412,1.05067 -2.708879,1.71101 -0.393732,0.33017 -0.757622,0.68311 -1.090889,1.0573 -0.192814,0.21649 -0.457252,0.7076 -0.777214,1.42317 -1.580972,5.22851 -6.703299,21.21183 -9.313643,30.41106 -0.352054,1.24069 -0.503274,2.10155 -0.543324,2.66992 -0.01602,0.22734 -0.01243,0.41927 0.02138,0.55219 0.035,0.13833 0.100812,0.20279 0.129332,0.22873 0.08341,0.0841 0.274387,0.10446 0.345076,0.10136 0.03394,-0.003 0.07004,-0.007 0.108003,-0.0145 0.22785,-0.0428 0.52932,-0.16641 0.914673,-0.35502 3.479044,-1.67746 7.313777,-2.56531 11.014832,-3.6375 2.75464,-0.79729 5.549377,-1.33563 8.315222,-2.20691 l 3.671611,-13.77746 c 2.019128,-7.57741 3.936547,-15.1737 4.261239,-16.88114 l 0.590144,-3.1042 z"
       id="path135"
       sodipodi:nodetypes="cssscssccccccccccc" /><path
       style="fill:url(#linearGradient146);fill-opacity:1;stroke:#ffffff;stroke-opacity:1;stroke-width:0.60117079;stroke-dasharray:none"
       inkscape:path-effect="#path-effect22"
       inkscape:original-d="m 95.880452,150.84557 -0.001,0.001 c -0.0039,6.4e-4 -0.0079,0.003 -0.01189,0.004 -3.28e-4,1.2e-4 -0.0013,9e-4 -0.0015,0.001 -0.0016,9.4e-4 -0.0032,0.002 -0.0052,0.003 -0.01708,0.0105 -0.03671,0.0307 -0.05891,0.0605 -0.0553,0.0743 -0.125932,0.20802 -0.209289,0.39377 -0.400122,0.89164 -1.09044,2.9766 -1.767851,5.39089 -0.45083,1.60674 -0.767523,3.06887 -0.944128,4.4452 -0.353211,2.75268 -0.148275,5.1609 0.65474,7.68842 0.401508,1.26376 0.952901,2.55772 1.658297,3.9393 1.120864,2.19531 5.307729,6.49553 7.987109,8.50852 0.89313,0.671 1.6191,1.08727 2.00763,1.08727 0.0118,0 0.0226,-2e-5 0.0336,-0.001 0.0222,-0.003 0.0437,-0.007 0.0646,-0.0119 0.0209,-0.007 0.0414,-0.0151 0.061,-0.0253 0.0294,-0.0155 0.0576,-0.0351 0.0842,-0.0594 0.0532,-0.0486 0.10056,-0.11447 0.14262,-0.19637 0.042,-0.082 0.0787,-0.17993 0.11008,-0.29248 0.0209,-0.075 0.039,-0.15674 0.0553,-0.24443 0.0979,-0.52614 0.11394,-1.27273 0.0594,-2.15491 -0.10929,-1.76436 -0.49936,-4.07096 -1.07591,-6.2389 -0.38436,-1.44528 -0.85132,-2.82845 -1.37304,-3.94911 -0.64726,-1.39035 -1.12991,-2.58864 -1.38544,-3.39928 -0.0959,-0.30397 -0.15982,-0.55434 -0.18862,-0.73897 -0.0144,-0.0923 -0.0201,-0.16773 -0.0165,-0.22634 0.001,-0.0196 0.004,-0.0376 0.007,-0.0532 0.001,-0.008 0.003,-0.015 0.005,-0.0217 0.004,-0.0135 0.0102,-0.025 0.016,-0.0346 0.003,-0.005 0.007,-0.009 0.0109,-0.0129 l 5.1e-4,-5.2e-4 5.2e-4,-5.2e-4 c 0.001,-0.001 0.003,-0.002 0.005,-0.004 0.002,-9.9e-4 0.004,-0.003 0.006,-0.005 3e-4,-2e-4 7.1e-4,-8.7e-4 10e-4,-0.001 0.0256,-0.016 0.0606,-0.0128 0.10593,0.0109 0.008,0.004 0.0156,0.009 0.0238,0.0134 0.24712,0.15273 0.50906,0.40061 0.7798,0.72761 1.6244,1.96193 3.55419,6.76319 4.35529,10.83499 0.13351,0.67864 0.23609,1.33748 0.30024,1.95906 l 0.53485,5.18159 1.76527,-2.67684 c 0.50809,-0.77058 0.90805,-1.81148 1.19734,-3.0086 0.14465,-0.59855 0.26135,-1.23603 0.35037,-1.89859 0.0891,-0.66255 0.15068,-1.35032 0.18345,-2.04845 0.0307,-0.33585 0.0465,-0.65712 0.0465,-0.9586 0,-0.37921 -0.0117,-0.75561 -0.0331,-1.12862 -0.0213,-0.63944 -0.0659,-1.27628 -0.13436,-1.89962 -0.0684,-0.62334 -0.16083,-1.23295 -0.27699,-1.81901 -0.23228,-1.1721 -0.55968,-2.24912 -0.98547,-3.14503 -0.0746,-0.15701 -0.19071,-0.34841 -0.34158,-0.57051 -0.15087,-0.2221 -0.33692,-0.47418 -0.55397,-0.75137 -0.43409,-0.55441 -0.99063,-1.20954 -1.62884,-1.92443 -1.27643,-1.42979 -2.88047,-3.10038 -4.48913,-4.69274 -1.60867,-1.59236 -3.221869,-3.10621 -4.517042,-4.22196 -0.6476,-0.55789 -1.215829,-1.01644 -1.663981,-1.33532 -0.224077,-0.15945 -0.417627,-0.28375 -0.576709,-0.36846 -0.11927,-0.0636 -0.218836,-0.10488 -0.296623,-0.12144 -0.01314,-0.003 -0.02552,-0.005 -0.03721,-0.007 -0.01182,-10e-4 -0.02308,-0.003 -0.03359,-0.003 -9.85e-4,0 -0.0033,-4e-5 -0.0047,0 z"
       transform="translate(4.9684014,40.8513)"
       d="m 95.880452,150.84557 -0.001,0.001 c -0.0039,6.4e-4 -0.0079,0.003 -0.01189,0.004 -3.28e-4,1.2e-4 -0.0013,9e-4 -0.0015,0.001 -0.0016,9.4e-4 -0.0032,0.002 -0.0052,0.003 -0.01708,0.0105 -0.03671,0.0307 -0.05891,0.0605 -0.0553,0.0743 -0.125932,0.20802 -0.209289,0.39377 -0.400122,0.89164 -1.09044,2.9766 -1.767851,5.39089 -0.45083,1.60674 -0.767523,3.06887 -0.944128,4.4452 -0.353211,2.75268 -0.148275,5.1609 0.65474,7.68842 0.401508,1.26376 0.952901,2.55772 1.658297,3.9393 1.120864,2.19531 5.307729,6.49553 7.987109,8.50852 0.89313,0.671 1.6191,1.08727 2.00763,1.08727 0.0118,0 0.0226,-2e-5 0.0336,-0.001 0.0222,-0.003 0.0437,-0.007 0.0646,-0.0119 0.0209,-0.007 0.0414,-0.0151 0.061,-0.0253 0.0294,-0.0155 0.0576,-0.0351 0.0842,-0.0594 0.0532,-0.0486 0.10056,-0.11447 0.14262,-0.19637 0.042,-0.082 0.0787,-0.17993 0.11008,-0.29248 0.0209,-0.075 0.039,-0.15674 0.0553,-0.24443 0.0979,-0.52614 0.11394,-1.27273 0.0594,-2.15491 -0.10929,-1.76436 -0.49936,-4.07096 -1.07591,-6.2389 -0.38436,-1.44528 -0.85132,-2.82845 -1.37304,-3.94911 -0.64726,-1.39035 -1.12991,-2.58864 -1.38544,-3.39928 -0.0959,-0.30397 -0.15982,-0.55434 -0.18862,-0.73897 -0.0144,-0.0923 -0.0201,-0.16773 -0.0165,-0.22634 0.001,-0.0196 0.004,-0.0376 0.007,-0.0532 0.001,-0.008 0.003,-0.015 0.005,-0.0217 0.004,-0.0135 0.0102,-0.025 0.016,-0.0346 0.003,-0.005 0.007,-0.009 0.0109,-0.0129 l 5.1e-4,-5.2e-4 5.2e-4,-5.2e-4 c 0.001,-0.001 0.003,-0.002 0.005,-0.004 0.002,-9.9e-4 0.004,-0.003 0.006,-0.005 3e-4,-2e-4 7.1e-4,-8.7e-4 10e-4,-0.001 0.0256,-0.016 0.0606,-0.0128 0.10593,0.0109 0.008,0.004 0.0156,0.009 0.0238,0.0134 0.24712,0.15273 0.50906,0.40061 0.7798,0.72761 1.6244,1.96193 3.55419,6.76319 4.35529,10.83499 0.13351,0.67864 0.23609,1.33748 0.30024,1.95906 l 0.53485,5.18159 1.76527,-2.67684 c 0.50809,-0.77058 0.90805,-1.81148 1.19734,-3.0086 0.14465,-0.59855 0.26135,-1.23603 0.35037,-1.89859 0.0891,-0.66255 0.15068,-1.35032 0.18345,-2.04845 0.0307,-0.33585 0.0465,-0.65712 0.0465,-0.9586 0,-0.37921 -0.0117,-0.75561 -0.0331,-1.12862 -0.0213,-0.63944 -0.0659,-1.27628 -0.13436,-1.89962 -0.0684,-0.62334 -0.16083,-1.23295 -0.27699,-1.81901 -0.23228,-1.1721 -0.55968,-2.24912 -0.98547,-3.14503 -0.0746,-0.15701 -0.19071,-0.34841 -0.34158,-0.57051 -0.15087,-0.2221 -0.33692,-0.47418 -0.55397,-0.75137 -0.43409,-0.55441 -0.99063,-1.20954 -1.62884,-1.92443 -1.27643,-1.42979 -2.88047,-3.10038 -4.48913,-4.69274 -1.60867,-1.59236 -3.221869,-3.10621 -4.517042,-4.22196 -0.6476,-0.55789 -1.215829,-1.01644 -1.663981,-1.33532 -0.224077,-0.15945 -0.417627,-0.28375 -0.576709,-0.36846 -0.11927,-0.0636 -0.218836,-0.10488 -0.296623,-0.12144 -0.01314,-0.003 -0.02552,-0.005 -0.03721,-0.007 -0.01182,-10e-4 -0.02308,-0.003 -0.03359,-0.003 -9.85e-4,0 -0.0033,-4e-5 -0.0047,0 z"
       id="path22" /></g></svg>
